<svg width="40" height="44" viewBox="0 0 40 44" fill="none" xmlns="http://www.w3.org/2000/svg">
<path d="M40 20C40 26.0826 37.2847 31.531 33 35.1992C30.21 37.5878 23.5936 41.7691 21.035 43.3604C20.3979 43.7567 19.6021 43.7567 18.965 43.3604C16.4064 41.7691 9.79004 37.5878 7 35.1992C2.71535 31.531 0 26.0826 0 20C0 8.9543 8.9543 0 20 0C31.0457 0 40 8.9543 40 20Z" fill="#FF6969"/>
<circle cx="20" cy="20" r="16" fill="white"/>
<path d="M28.9059 14.5141C28.7651 13.9334 28.4757 13.3992 28.0662 12.964C27.6568 12.5288 27.1412 12.2075 26.5701 12.0315C25.9991 11.8556 25.3921 11.8311 24.8087 11.9605C24.2253 12.0898 23.6855 12.3685 23.2423 12.7693C23.0004 12.1043 22.5597 11.5297 21.98 11.1238C21.4003 10.7178 20.7097 10.5 20.002 10.5C19.2943 10.5 18.6037 10.7178 18.024 11.1238C17.4443 11.5297 17.0036 12.1043 16.7617 12.7693C16.3185 12.3685 15.7787 12.0898 15.1953 11.9605C14.6119 11.8311 14.0049 11.8556 13.4339 12.0315C12.8628 12.2075 12.3472 12.5288 11.9378 12.964C11.5283 13.3992 11.2389 13.9334 11.0981 14.5141C10.9881 14.9673 10.9704 15.438 11.0461 15.8982C11.1218 16.3584 11.2893 16.7986 11.5386 17.1927C11.788 17.5868 12.1141 17.9266 12.4976 18.192C12.8811 18.4574 13.5433 18.643 14 18.7376V24.6534C14 25.0207 14.1459 25.3729 14.4056 25.6326C14.6653 25.8923 15.0175 26.0381 15.3847 26.0381H24.6153C24.9825 26.0381 25.3347 25.8923 25.5944 25.6326C25.8541 25.3729 26 25.0207 26 24.6534V18.7376C26.4567 18.643 27.1229 18.4574 27.5064 18.192C27.8899 17.9266 28.216 17.5868 28.4654 17.1927C28.7147 16.7986 28.8822 16.3584 28.9579 15.8982C29.0336 15.438 29.0159 14.9673 28.9059 14.5141Z" stroke="#FF6969" stroke-linecap="round" stroke-linejoin="round"/>
<path d="M14 22.5H26" stroke="#FF6969" stroke-linecap="round" stroke-linejoin="round"/>
<path d="M14 28.5H26" stroke="#FF6969" stroke-linecap="round" stroke-linejoin="round"/>
</svg>
