<svg width="40" height="44" viewBox="0 0 40 44" fill="none" xmlns="http://www.w3.org/2000/svg">
<path d="M40 20C40 26.0826 37.2847 31.531 33 35.1992C30.21 37.5878 23.5936 41.7691 21.035 43.3604C20.3979 43.7567 19.6021 43.7567 18.965 43.3604C16.4064 41.7691 9.79004 37.5878 7 35.1992C2.71535 31.531 0 26.0826 0 20C0 8.9543 8.9543 0 20 0C31.0457 0 40 8.9543 40 20Z" fill="#FFBD70"/>
<circle cx="20" cy="20" r="16" fill="white"/>
<path d="M29 17.9086H29.5C29.5 17.6324 29.2761 17.4086 29 17.4086V17.9086ZM11 17.9086V17.4086C10.8674 17.4086 10.7402 17.4612 10.6464 17.555C10.5527 17.6488 10.5 17.776 10.5 17.9086H11ZM13.636 25.3978L13.255 25.7216L13.636 25.3978ZM20.735 10.6412L20.9201 10.1768L20.9201 10.1768L20.735 10.6412ZM20.9164 10.7136L20.7313 11.178L20.7313 11.178L20.9164 10.7136ZM21.7714 10.8511L21.7411 10.352L21.7411 10.352L21.7714 10.8511ZM21.97 10.839L22.0002 11.3381H22.0002L21.97 10.839ZM23.3928 11.3222L23.7202 10.9442L23.7202 10.9442L23.3928 11.3222ZM23.4739 11.3924L23.1466 11.7703L23.1466 11.7703L23.4739 11.3924ZM24.2756 11.8148L24.4019 11.331L24.4019 11.331L24.2756 11.8148ZM24.4063 11.8489L24.2799 12.3327L24.2799 12.3327L24.4063 11.8489ZM26.2703 13.5066L25.9953 13.9241L25.9953 13.9241L26.2703 13.5066ZM26.3438 13.555L26.6188 13.1374L26.6188 13.1374L26.3438 13.555ZM27.4757 15.6957L27.0745 15.9942L27.4757 15.6957ZM27.5988 16.699C27.7636 16.9205 28.0769 16.9665 28.2984 16.8017C28.52 16.6369 28.566 16.3237 28.4012 16.1021L27.5988 16.699ZM11.5988 16.1021C11.434 16.3237 11.48 16.6369 11.7016 16.8017C11.9231 16.9665 12.2364 16.9205 12.4012 16.699L11.5988 16.1021ZM12.5243 15.6957L12.9255 15.9942L12.5243 15.6957ZM13.6562 13.555L13.3812 13.1374L13.6562 13.555ZM13.7297 13.5066L14.0047 13.9241L14.0047 13.9241L13.7297 13.5066ZM15.5937 11.8489L15.7201 12.3327L15.7201 12.3327L15.5937 11.8489ZM15.7244 11.8148L15.5981 11.331L15.5981 11.331L15.7244 11.8148ZM16.5261 11.3924L16.1988 11.0144L16.5261 11.3924ZM16.6072 11.3222L16.2798 10.9442V10.9442L16.6072 11.3222ZM18.03 10.839L17.9998 11.3381L17.9998 11.3381L18.03 10.839ZM18.2286 10.8511L18.2589 10.352L18.2589 10.352L18.2286 10.8511ZM19.0836 10.7136L18.8985 10.2491V10.2491L19.0836 10.7136ZM19.265 10.6412L19.4502 11.1057V11.1057L19.265 10.6412ZM14.3728 12.8064L14.812 13.0456L14.3728 12.8064ZM12.8661 14.8372L13.3625 14.8965V14.8965L12.8661 14.8372ZM27.1339 14.8372L26.6375 14.8965L26.6375 14.8965L27.1339 14.8372ZM25.6272 12.8064L25.188 13.0456V13.0456L25.6272 12.8064ZM20 29C21.5992 29 22.7222 28.9304 23.5293 28.7869C24.3382 28.6431 24.8805 28.4168 25.2704 28.065C25.6518 27.721 25.8368 27.2949 26.0058 26.9314C26.1802 26.5564 26.3684 26.1648 26.745 25.7216L25.9829 25.0741C25.5156 25.624 25.2818 26.1168 25.0991 26.5097C24.9111 26.914 24.8038 27.1393 24.6006 27.3225C24.4061 27.498 24.0715 27.6748 23.3543 27.8023C22.6353 27.9301 21.5827 28 20 28V29ZM26.745 25.7216C28.5158 23.6376 29.5 20.8263 29.5 17.9086H28.5C28.5 20.6089 27.5878 23.1855 25.9829 25.0741L26.745 25.7216ZM29 17.4086H11V18.4086H29V17.4086ZM10.5 17.9086C10.5 20.8263 11.4842 23.6376 13.255 25.7216L14.0171 25.0741C12.4122 23.1855 11.5 20.6089 11.5 17.9086H10.5ZM13.255 25.7216C13.6272 26.1596 13.8132 26.5482 13.9871 26.9229C14.1558 27.2863 14.341 27.7125 14.7232 28.0576C15.1137 28.4102 15.657 28.6386 16.4676 28.784C17.2763 28.9292 18.4005 29 20 29V28C18.4176 28 17.3642 27.929 16.6442 27.7998C15.9261 27.6709 15.5895 27.4925 15.3934 27.3155C15.1891 27.1309 15.081 26.9045 14.8941 26.5019C14.7125 26.1105 14.4806 25.6196 14.0171 25.0741L13.255 25.7216ZM20.5498 11.1057L20.7313 11.178L21.1015 10.2491L20.9201 10.1768L20.5498 11.1057ZM21.8017 11.3501L22.0002 11.3381L21.9397 10.3399L21.7411 10.352L21.8017 11.3501ZM23.0655 11.7001L23.1466 11.7703L23.8012 11.0144L23.7202 10.9442L23.0655 11.7001ZM24.1492 12.2986L24.2799 12.3327L24.5326 11.3651L24.4019 11.331L24.1492 12.2986ZM25.9953 13.9241L26.0687 13.9725L26.6188 13.1374L26.5454 13.089L25.9953 13.9241ZM27.0745 15.9942L27.5988 16.699L28.4012 16.1021L27.8769 15.3973L27.0745 15.9942ZM12.4012 16.699L12.9255 15.9942L12.1231 15.3973L11.5988 16.1021L12.4012 16.699ZM13.9313 13.9725L14.0047 13.9241L13.4546 13.089L13.3812 13.1374L13.9313 13.9725ZM15.7201 12.3327L15.8508 12.2986L15.5981 11.331L15.4674 11.3651L15.7201 12.3327ZM16.8534 11.7703L16.9345 11.7001L16.2798 10.9442L16.1988 11.0144L16.8534 11.7703ZM17.9998 11.3381L18.1983 11.3501L18.2589 10.352L18.0603 10.3399L17.9998 11.3381ZM19.2687 11.178L19.4502 11.1057L19.0799 10.1768L18.8985 10.2491L19.2687 11.178ZM18.1983 11.3501C18.5634 11.3723 18.9288 11.3135 19.2687 11.178L18.8985 10.2491C18.6951 10.3301 18.4768 10.3652 18.2589 10.352L18.1983 11.3501ZM16.9345 11.7001C17.2302 11.444 17.6123 11.3146 17.9998 11.3381L18.0603 10.3399C17.4108 10.3006 16.7723 10.5177 16.2798 10.9442L16.9345 11.7001ZM15.8508 12.2986C16.2209 12.2019 16.5639 12.0211 16.8534 11.7703L16.1988 11.0144C16.0248 11.165 15.8193 11.2732 15.5981 11.331L15.8508 12.2986ZM14.812 13.0456C15.0052 12.6907 15.3342 12.4334 15.7201 12.3327L15.4674 11.3651C14.8126 11.5361 14.2581 11.9717 13.9337 12.5673L14.812 13.0456ZM12.9255 15.9942C13.1644 15.673 13.315 15.2944 13.3625 14.8965L12.3696 14.7778C12.3427 15.003 12.2575 15.2166 12.1231 15.3973L12.9255 15.9942ZM26.6375 14.8965C26.685 15.2944 26.8356 15.673 27.0745 15.9942L27.8769 15.3973C27.7425 15.2166 27.6573 15.003 27.6304 14.7778L26.6375 14.8965ZM26.0687 13.9725C26.3832 14.1796 26.5922 14.5175 26.6375 14.8965L27.6304 14.7778C27.5504 14.1085 27.1808 13.5076 26.6188 13.1374L26.0687 13.9725ZM25.188 13.0456C25.3813 13.4004 25.6584 13.7022 25.9953 13.9241L26.5454 13.089C26.346 12.9577 26.1814 12.7787 26.0663 12.5673L25.188 13.0456ZM24.2799 12.3327C24.6658 12.4334 24.9948 12.6907 25.188 13.0456L26.0663 12.5673C25.7419 11.9717 25.1874 11.5361 24.5326 11.3651L24.2799 12.3327ZM23.1466 11.7703C23.4361 12.0211 23.7791 12.2019 24.1492 12.2986L24.4019 11.331C24.1807 11.2732 23.9752 11.165 23.8012 11.0144L23.1466 11.7703ZM22.0002 11.3381C22.3877 11.3146 22.7698 11.444 23.0655 11.7001L23.7202 10.9442C23.2277 10.5177 22.5892 10.3006 21.9397 10.3399L22.0002 11.3381ZM14.0047 13.9241C14.3416 13.7022 14.6187 13.4004 14.812 13.0456L13.9337 12.5673C13.8186 12.7787 13.654 12.9577 13.4546 13.089L14.0047 13.9241ZM20.7313 11.178C21.0712 11.3135 21.4366 11.3723 21.8017 11.3501L21.7411 10.352C21.5232 10.3652 21.3049 10.3301 21.1015 10.2491L20.7313 11.178ZM13.3625 14.8965C13.4078 14.5175 13.6168 14.1796 13.9313 13.9725L13.3812 13.1374C12.8192 13.5076 12.4496 14.1085 12.3696 14.7778L13.3625 14.8965ZM20.9201 10.1768C20.329 9.94118 19.671 9.94118 19.0799 10.1768L19.4502 11.1057C19.8035 10.9649 20.1965 10.9649 20.5498 11.1057L20.9201 10.1768Z" fill="#FFBD70"/>
</svg>
