<svg width="40" height="44" viewBox="0 0 40 44" fill="none" xmlns="http://www.w3.org/2000/svg">
<path d="M40 20C40 26.0826 37.2847 31.531 33 35.1992C30.21 37.5878 23.5936 41.7691 21.035 43.3604C20.3979 43.7567 19.6021 43.7567 18.965 43.3604C16.4064 41.7691 9.79004 37.5878 7 35.1992C2.71535 31.531 0 26.0826 0 20C0 8.9543 8.9543 0 20 0C31.0457 0 40 8.9543 40 20Z" fill="#4876EF"/>
<circle cx="20" cy="20" r="16" fill="white"/>
<circle cx="15" cy="15" r="4" fill="#4876EF"/>
<circle cx="25" cy="15" r="4" fill="#B4C0D3"/>
<circle cx="15" cy="25" r="4" fill="#B4C0D3"/>
<circle cx="25" cy="25" r="4" fill="#00D3AB"/>
</svg>
