<svg width="40" height="44" viewBox="0 0 40 44" fill="none" xmlns="http://www.w3.org/2000/svg">
<path d="M40 20C40 26.0826 37.2847 31.531 33 35.1992C30.21 37.5878 23.5936 41.7691 21.035 43.3604C20.3979 43.7567 19.6021 43.7567 18.965 43.3604C16.4064 41.7691 9.79004 37.5878 7 35.1992C2.71535 31.531 0 26.0826 0 20C0 8.9543 8.9543 0 20 0C31.0457 0 40 8.9543 40 20Z" fill="#00D3AB"/>
<circle cx="20" cy="20" r="16" fill="white"/>
<path d="M25.25 20C27.3211 20 29 17.9853 29 15.5C29 13.0147 27.3211 11 25.25 11C23.1789 11 21.5 13.0147 21.5 15.5C21.5 17.9853 23.1789 20 25.25 20Z" stroke="#00D3AB" stroke-linecap="round" stroke-linejoin="round"/>
<path d="M25.25 20V29" stroke="#00D3AB" stroke-linecap="round" stroke-linejoin="round"/>
<path d="M14.75 11V29" stroke="#00D3AB" stroke-linecap="round" stroke-linejoin="round"/>
<path d="M18.5 11V14.75C18.5 15.2425 18.403 15.7301 18.2145 16.1851C18.0261 16.64 17.7499 17.0534 17.4017 17.4017C17.0534 17.7499 16.64 18.0261 16.1851 18.2145C15.7301 18.403 15.2425 18.5 14.75 18.5V18.5C13.7554 18.5 12.8016 18.1049 12.0983 17.4017C11.3951 16.6984 11 15.7446 11 14.75V11" stroke="#00D3AB" stroke-linecap="round" stroke-linejoin="round"/>
</svg>
